# Blender v2.79 (sub 0) OBJ File: 'door.blend'
# www.blender.org
mtllib doorrender.mtl
v 0.040000 0.000000 -0.250000
v 0.040000 0.000000 0.250000
v -0.040000 0.000000 0.250000
v -0.040000 0.000000 -0.250000
v 0.040000 1.000000 -0.250000
v 0.040000 1.000000 0.250000
v -0.040000 1.000000 0.250000
v -0.040000 1.000000 -0.250000
vt 0.333533 0.333134
vt 0.765680 0.238930
vt 0.666467 0.333134
vt 0.000200 0.190516
vt 0.333133 0.000200
vt 0.326933 0.193616
vt 0.996618 0.998209
vt 0.000200 -0.001309
vt 1.002818 0.001791
vt 0.543960 0.937792
vt 0.477660 0.663766
vt 0.550161 0.663766
vt -0.002818 0.001392
vt 0.987399 0.995426
vt 0.999800 0.001391
vt 0.554853 0.666467
vt 0.482352 0.364537
vt 0.548652 0.361437
vt 0.333533 0.000200
vt 0.000200 0.000200
vt 0.000200 0.998209
vt 0.465259 0.934692
vt -0.002818 0.998526
vt 0.469951 0.663366
vn 0.0000 -1.0000 0.0000
vn 0.0000 1.0000 0.0000
vn 1.0000 -0.0000 0.0000
vn -0.0000 -0.0000 1.0000
vn -1.0000 -0.0000 -0.0000
vn 0.0000 0.0000 -1.0000
usemtl Material.001
s off
f 2/1/1 4/2/1 1/3/1
f 8/4/2 6/5/2 5/6/2
f 5/7/3 2/8/3 1/9/3
f 6/10/4 3/11/4 2/12/4
f 3/13/5 8/14/5 4/15/5
f 1/16/6 8/17/6 5/18/6
f 2/1/1 3/19/1 4/2/1
f 8/4/2 7/20/2 6/5/2
f 5/7/3 6/21/3 2/8/3
f 6/10/4 7/22/4 3/11/4
f 3/13/5 7/23/5 8/14/5
f 1/16/6 4/24/6 8/17/6
