# Blender v2.79 (sub 0) OBJ File: 'fulloil.blend'
# www.blender.org
mtllib fulloilcy.mtl
o Cube.012_Cube.004
v -0.060000 0.187500 -0.590000
v -0.060000 1.312500 -0.590000
v -0.060000 0.187500 -0.710000
v -0.060000 1.312500 -0.710000
v 0.060000 0.187500 -0.590000
v 0.060000 1.312500 -0.590000
v 0.060000 0.187500 -0.710000
v 0.060000 1.312500 -0.710000
v -0.062500 2.037500 0.325000
v -0.062500 2.162500 0.325000
v -0.062500 2.037500 -0.325000
v -0.062500 2.162500 -0.325000
v 0.062500 2.037500 0.325000
v 0.062500 2.162500 0.325000
v 0.062500 2.037500 -0.325000
v 0.062500 2.162500 -0.325000
v -0.060000 0.187500 0.710000
v -0.060000 1.312500 0.710000
v -0.060000 0.187500 0.590000
v -0.060000 1.312500 0.590000
v 0.060000 0.187500 0.710000
v 0.060000 1.312500 0.710000
v 0.060000 0.187500 0.590000
v 0.060000 1.312500 0.590000
v 0.625000 -0.175000 -0.625000
v 0.625000 -0.175000 0.625000
v -0.625000 -0.175000 0.625000
v -0.624999 -0.175000 -0.625000
v 0.625000 0.175000 -0.624999
v 0.624999 0.175000 0.625000
v -0.625000 0.175000 0.624999
v -0.625000 0.175000 -0.625000
v -0.125000 0.125000 0.625000
v -0.125000 1.375000 0.625000
v -0.125000 0.125000 0.375000
v -0.125000 1.375000 0.375000
v 0.125000 0.125000 0.625000
v 0.125000 1.375000 0.625000
v 0.125000 0.125000 0.375000
v 0.125000 1.375000 0.375000
v -0.062500 0.850000 0.062500
v -0.062500 1.350000 0.062500
v -0.062500 0.850000 -0.062500
v -0.062500 1.350000 -0.062500
v 0.062500 0.850000 0.062500
v 0.062500 1.350000 0.062500
v 0.062500 0.850000 -0.062500
v 0.062500 1.350000 -0.062500
v 0.625000 1.325000 -0.625000
v 0.625000 1.325000 0.625000
v -0.625000 1.325000 0.625000
v -0.624999 1.325000 -0.625000
v 0.625000 1.675000 -0.624999
v 0.624999 1.675000 0.625000
v -0.625000 1.675000 0.624999
v -0.625000 1.675000 -0.625000
v -0.175000 0.500000 0.175000
v -0.175000 1.000000 0.175000
v -0.175000 0.500000 -0.175000
v -0.175000 1.000000 -0.175000
v 0.175000 0.500000 0.175000
v 0.175000 1.000000 0.175000
v 0.175000 0.500000 -0.175000
v 0.175000 1.000000 -0.175000
v 0.375000 1.475000 -0.375000
v 0.375000 1.475000 0.375000
v -0.375000 1.475000 0.375000
v -0.375000 1.475000 -0.375000
v 0.375000 1.825000 -0.375000
v 0.375000 1.825000 0.375000
v -0.375000 1.825000 0.375000
v -0.375000 1.825000 -0.375000
v -0.062500 0.050000 0.062500
v -0.062500 0.550000 0.062500
v -0.062500 0.050000 -0.062500
v -0.062500 0.550000 -0.062500
v 0.062500 0.050000 0.062500
v 0.062500 0.550000 0.062500
v 0.062500 0.050000 -0.062500
v 0.062500 0.550000 -0.062500
v -0.062500 1.600000 -0.187500
v -0.062500 2.100000 -0.187500
v -0.062500 1.600000 -0.312500
v -0.062500 2.100000 -0.312500
v 0.062500 1.600000 -0.187500
v 0.062500 2.100000 -0.187500
v 0.062500 1.600000 -0.312500
v 0.062500 2.100000 -0.312500
v -0.062500 1.600000 0.312500
v -0.062500 2.100000 0.312500
v -0.062500 1.600000 0.187500
v -0.062500 2.100000 0.187500
v 0.062500 1.600000 0.312500
v 0.062500 2.100000 0.312500
v 0.062500 1.600000 0.187500
v 0.062500 2.100000 0.187500
v -0.125000 0.125000 -0.375000
v -0.125000 1.375000 -0.375000
v -0.125000 0.125000 -0.625000
v -0.125000 1.375000 -0.625000
v 0.125000 0.125000 -0.375000
v 0.125000 1.375000 -0.375000
v 0.125000 0.125000 -0.625000
v 0.125000 1.375000 -0.625000
v 0.062500 2.037500 0.325000
v 0.062500 2.162500 0.325000
v 0.062500 2.037500 0.325000
v 0.062500 2.162500 0.325000
vt 0.642754 0.807051
vt 0.642754 0.851059
vt 0.613416 0.851059
vt 0.613416 0.807051
vt 0.927316 0.053694
vt 0.927316 0.009686
vt 0.956655 0.009686
vt 0.956655 0.053694
vt 0.701432 0.807051
vt 0.701432 0.851059
vt 0.672093 0.851059
vt 0.672093 0.807051
vt 0.642754 0.763043
vt 0.672093 0.763043
vt 0.672093 0.895067
vt 0.642754 0.895067
vt 0.613416 0.009640
vt 0.613416 0.004750
vt 0.772331 0.004750
vt 0.772331 0.009640
vt 0.797660 0.412136
vt 0.797660 0.407246
vt 0.828221 0.407246
vt 0.828221 0.412136
vt 0.159354 0.948165
vt 0.159354 0.953055
vt 0.000439 0.953055
vt 0.000439 0.948165
vt 0.803772 0.001694
vt 0.803772 0.006584
vt 0.773211 0.006584
vt 0.773211 0.001694
vt 0.956577 0.413014
vt 0.956577 0.458855
vt 0.797660 0.458855
vt 0.797660 0.413013
vt 0.772333 0.010517
vt 0.772333 0.056359
vt 0.613416 0.056359
vt 0.613416 0.010517
vt 0.728390 0.891504
vt 0.702309 0.838627
vt 0.742035 0.810777
vt 0.743125 0.854150
vt 0.773858 0.833475
vt 0.756728 0.859323
vt 0.788990 0.871592
vt 0.763578 0.894291
vt 0.979121 0.351477
vt 0.979121 0.395485
vt 0.949782 0.395485
vt 0.949782 0.351477
vt 0.757167 0.763043
vt 0.788990 0.785741
vt 0.306050 0.918149
vt 0.000439 0.918149
vt 0.000439 0.459733
vt 0.306050 0.459733
vt 0.306050 0.458855
vt 0.000439 0.458855
vt 0.000439 0.000439
vt 0.306050 0.000439
vt 0.612537 0.962735
vt 0.612537 0.976426
vt 0.306922 0.976426
vt 0.306922 0.962735
vt 0.612542 0.948165
vt 0.612542 0.961857
vt 0.306922 0.961856
vt 0.306922 0.948165
vt 0.306927 0.932719
vt 0.306927 0.919027
vt 0.612542 0.919026
vt 0.612542 0.932717
vt 0.919031 0.985870
vt 0.919030 0.999561
vt 0.613416 0.999561
vt 0.613416 0.985870
vt 0.778908 0.142041
vt 0.723463 0.182928
vt 0.779084 0.142089
vt 0.799271 0.134645
vt 0.785144 0.106444
vt 0.864439 0.126259
vt 0.613416 0.057236
vt 0.757523 0.057236
vt 0.834333 0.007461
vt 0.834333 0.056359
vt 0.773211 0.056359
vt 0.773211 0.007461
vt 0.870484 0.548760
vt 0.861443 0.548760
vt 0.904800 0.609442
vt 0.904175 0.595913
vt 0.967160 0.671412
vt 0.925361 0.625565
vt 0.815915 0.459733
vt 0.849298 0.519108
vt 0.612538 0.918149
vt 0.306927 0.918149
vt 0.306927 0.459733
vt 0.612538 0.459733
vt 0.612538 0.458855
vt 0.306927 0.458855
vt 0.306927 0.000439
vt 0.612538 0.000439
vt 0.306054 0.933596
vt 0.306054 0.947288
vt 0.000439 0.947288
vt 0.000439 0.933597
vt 0.612547 0.933596
vt 0.612547 0.947288
vt 0.306927 0.947286
vt 0.306927 0.933596
vt 0.000439 0.932719
vt 0.000439 0.919027
vt 0.306054 0.919026
vt 0.306054 0.932717
vt 0.612537 0.977304
vt 0.612537 0.990995
vt 0.306922 0.990995
vt 0.306922 0.977304
vt 0.815915 0.925690
vt 0.815920 0.906131
vt 0.901491 0.906175
vt 0.901486 0.925734
vt 0.728067 0.915503
vt 0.728071 0.895944
vt 0.813642 0.895988
vt 0.813638 0.915548
vt 0.813642 0.916469
vt 0.813638 0.936028
vt 0.728067 0.935984
vt 0.728071 0.916425
vt 0.901486 0.926612
vt 0.901486 0.946171
vt 0.815915 0.946171
vt 0.815915 0.926612
vt 0.994400 0.800646
vt 0.908829 0.800646
vt 0.908829 0.672289
vt 0.994400 0.672289
vt 0.950888 0.182928
vt 0.865317 0.182928
vt 0.865317 0.054571
vt 0.950888 0.054571
vt 0.805910 0.748474
vt 0.622543 0.748474
vt 0.622543 0.473424
vt 0.805910 0.473424
vt 0.796782 0.458855
vt 0.613416 0.458855
vt 0.613416 0.183805
vt 0.796782 0.183805
vt 0.805910 0.762165
vt 0.622543 0.762165
vt 0.613416 0.748474
vt 0.613416 0.473424
vt 0.622543 0.459733
vt 0.805910 0.459733
vt 0.815038 0.748474
vt 0.815038 0.473424
vt 0.843188 0.306457
vt 0.852229 0.306457
vt 0.885920 0.259304
vt 0.886545 0.245775
vt 0.907106 0.229652
vt 0.948905 0.183805
vt 0.831042 0.336109
vt 0.797660 0.395485
vt 0.943010 0.854381
vt 0.965913 0.890915
vt 0.908829 0.971435
vt 0.908829 0.886629
vt 0.910621 0.851982
vt 0.920079 0.844075
vt 0.917289 0.847274
vt 0.916316 0.839850
vt 0.933595 0.801523
vt 0.933489 0.826409
vt 0.932708 0.819314
vt 0.930318 0.831243
vt 0.627757 0.978647
vt 0.616952 0.979092
vt 0.624880 0.964979
vt 0.628186 0.962253
vt 0.626119 0.968086
vt 0.627725 0.959550
vt 0.639942 0.939698
vt 0.658824 0.895944
vt 0.727189 0.962323
vt 0.663260 0.984992
vt 0.634087 0.984992
vt 0.613416 0.979588
vt 0.861783 0.784279
vt 0.860054 0.787746
vt 0.817111 0.686205
vt 0.907952 0.672289
vt 0.865317 0.053694
vt 0.865317 0.004796
vt 0.926439 0.004796
vt 0.926439 0.053694
vt 0.907952 0.892798
vt 0.815915 0.905254
vt 0.862366 0.792578
vt 0.864402 0.789169
vn -1.0000 0.0000 0.0000
vn 0.0000 0.0000 -1.0000
vn 1.0000 0.0000 0.0000
vn 0.0000 0.0000 1.0000
vn 0.0000 -1.0000 0.0000
vn 0.0000 1.0000 0.0000
usemtl Material
s off
f 1/1/1 2/2/1 4/3/1 3/4/1
f 3/5/2 4/6/2 8/7/2 7/8/2
f 7/9/3 8/10/3 6/11/3 5/12/3
f 5/12/4 6/11/4 2/2/4 1/1/4
f 3/13/5 7/14/5 5/12/5 1/1/5
f 8/15/6 4/16/6 2/2/6 6/11/6
f 9/17/1 10/18/1 12/19/1 11/20/1
f 11/21/2 12/22/2 16/23/2 15/24/2
f 15/25/3 16/26/3 14/27/3 13/28/3
f 13/29/4 14/30/4 10/31/4 9/32/4
f 11/33/5 15/34/5 13/35/5 9/36/5
f 16/37/6 12/38/6 10/39/6 14/40/6
f 17/41/1 18/42/1 20/43/1 19/44/1
f 19/44/2 20/43/2 24/45/2 23/46/2
f 23/46/3 24/45/3 22/47/3 21/48/3
f 21/49/4 22/50/4 18/51/4 17/52/4
f 19/44/5 23/46/5 21/48/5 17/41/5
f 24/45/6 20/43/6 18/53/6 22/54/6
f 25/55/5 26/56/5 27/57/5 28/58/5
f 29/59/6 32/60/6 31/61/6 30/62/6
f 25/63/3 29/64/3 30/65/3 26/66/3
f 26/67/4 30/68/4 31/69/4 27/70/4
f 27/71/1 31/72/1 32/73/1 28/74/1
f 29/75/2 25/76/2 28/77/2 32/78/2
f 33/79/1 34/80/1 36/81/1 35/82/1
f 35/82/2 36/81/2 40/83/2 39/84/2
f 39/84/3 40/83/3 38/85/3 37/86/3
f 37/87/4 38/88/4 34/89/4 33/90/4
f 35/82/5 39/84/5 37/86/5 33/79/5
f 40/83/6 36/81/6 34/80/6 38/85/6
f 41/91/1 42/92/1 44/93/1 43/94/1
f 43/94/2 44/93/2 48/95/2 47/96/2
f 47/96/3 48/95/3 46/97/3 45/98/3
f 45/98/4 46/97/4 42/92/4 41/91/4
f 43/94/5 47/96/5 45/98/5 41/91/5
f 48/95/6 44/93/6 42/92/6 46/97/6
usemtl Material.001
f 49/99/5 50/100/5 51/101/5 52/102/5
f 53/103/6 56/104/6 55/105/6 54/106/6
f 49/107/3 53/108/3 54/109/3 50/110/3
f 50/111/4 54/112/4 55/113/4 51/114/4
f 51/115/1 55/116/1 56/117/1 52/118/1
f 53/119/2 49/120/2 52/121/2 56/122/2
f 57/123/1 58/124/1 60/125/1 59/126/1
f 59/127/2 60/128/2 64/129/2 63/130/2
f 63/131/3 64/132/3 62/133/3 61/134/3
f 61/135/4 62/136/4 58/137/4 57/138/4
f 59/139/5 63/140/5 61/141/5 57/142/5
f 64/143/6 60/144/6 58/145/6 62/146/6
usemtl Material.002
f 65/147/5 66/148/5 67/149/5 68/150/5
f 69/151/6 72/152/6 71/153/6 70/154/6
f 65/147/3 69/155/3 70/156/3 66/148/3
f 66/148/4 70/157/4 71/158/4 67/149/4
f 67/149/1 71/159/1 72/160/1 68/150/1
f 69/161/2 65/147/2 68/150/2 72/162/2
f 73/163/1 74/164/1 76/165/1 75/166/1
f 75/166/2 76/165/2 80/167/2 79/168/2
f 79/168/3 80/167/3 78/169/3 77/170/3
f 77/170/4 78/169/4 74/164/4 73/163/4
f 75/166/5 79/168/5 77/170/5 73/163/5
f 80/167/6 76/165/6 74/164/6 78/169/6
f 81/171/1 82/172/1 84/173/1 83/174/1
f 83/174/2 84/175/2 88/176/2 87/177/2
f 87/177/3 88/178/3 86/179/3 85/180/3
f 85/180/4 86/181/4 82/182/4 81/171/4
f 83/174/5 87/177/5 85/180/5 81/171/5
f 88/176/6 84/175/6 82/182/6 86/181/6
f 89/183/1 90/184/1 92/185/1 91/186/1
f 91/186/2 92/187/2 96/188/2 95/189/2
f 95/189/3 96/190/3 94/191/3 93/192/3
f 93/192/4 94/193/4 90/194/4 89/183/4
f 91/186/5 95/189/5 93/192/5 89/183/5
f 96/188/6 92/187/6 90/194/6 94/193/6
f 97/195/1 98/196/1 100/197/1 99/198/1
f 99/199/2 100/200/2 104/201/2 103/202/2
f 103/203/3 104/204/3 102/205/3 101/206/3
f 101/206/4 102/205/4 98/196/4 97/195/4
f 99/198/5 103/203/5 101/206/5 97/195/5
f 104/204/6 100/197/6 98/196/6 102/205/6
l 106 105
l 108 107
