# Blender v2.79 (sub 0) OBJ File: 'fulloil.blend'
# www.blender.org
mtllib fulloilrendtext.mtl
v -0.060000 0.187500 -0.590000
v -0.060000 1.312500 -0.590000
v -0.060000 0.187500 -0.710000
v -0.060000 1.312500 -0.710000
v 0.060000 0.187500 -0.590000
v 0.060000 1.312500 -0.590000
v 0.060000 0.187500 -0.710000
v 0.060000 1.312500 -0.710000
v -0.062500 2.037500 0.325000
v -0.062500 2.162500 0.325000
v -0.062500 2.037500 -0.325000
v -0.062500 2.162500 -0.325000
v 0.062500 2.037500 0.325000
v 0.062500 2.162500 0.325000
v 0.062500 2.037500 -0.325000
v 0.062500 2.162500 -0.325000
v -0.060000 0.187500 0.710000
v -0.060000 1.312500 0.710000
v -0.060000 0.187500 0.590000
v -0.060000 1.312500 0.590000
v 0.060000 0.187500 0.710000
v 0.060000 1.312500 0.710000
v 0.060000 0.187500 0.590000
v 0.060000 1.312500 0.590000
v 0.625000 -0.175000 -0.625000
v 0.625000 -0.175000 0.625000
v -0.625000 -0.175000 0.625000
v -0.624999 -0.175000 -0.625000
v 0.625000 0.175000 -0.624999
v 0.624999 0.175000 0.625000
v -0.625000 0.175000 0.624999
v -0.625000 0.175000 -0.625000
v -0.125000 0.125000 0.625000
v -0.125000 1.375000 0.625000
v -0.125000 0.125000 0.375000
v -0.125000 1.375000 0.375000
v 0.125000 0.125000 0.625000
v 0.125000 1.375000 0.625000
v 0.125000 0.125000 0.375000
v 0.125000 1.375000 0.375000
v -0.062500 0.850000 0.062500
v -0.062500 1.350000 0.062500
v -0.062500 0.850000 -0.062500
v -0.062500 1.350000 -0.062500
v 0.062500 0.850000 0.062500
v 0.062500 1.350000 0.062500
v 0.062500 0.850000 -0.062500
v 0.062500 1.350000 -0.062500
v 0.625000 1.325000 -0.625000
v 0.625000 1.325000 0.625000
v -0.625000 1.325000 0.625000
v -0.624999 1.325000 -0.625000
v 0.625000 1.675000 -0.624999
v 0.624999 1.675000 0.625000
v -0.625000 1.675000 0.624999
v -0.625000 1.675000 -0.625000
v -0.175000 0.500000 0.175000
v -0.175000 1.000000 0.175000
v -0.175000 0.500000 -0.175000
v -0.175000 1.000000 -0.175000
v 0.175000 0.500000 0.175000
v 0.175000 1.000000 0.175000
v 0.175000 0.500000 -0.175000
v 0.175000 1.000000 -0.175000
v 0.375000 1.475000 -0.375000
v 0.375000 1.475000 0.375000
v -0.375000 1.475000 0.375000
v -0.375000 1.475000 -0.375000
v 0.375000 1.825000 -0.375000
v 0.375000 1.825000 0.375000
v -0.375000 1.825000 0.375000
v -0.375000 1.825000 -0.375000
v -0.062500 0.050000 0.062500
v -0.062500 0.550000 0.062500
v -0.062500 0.050000 -0.062500
v -0.062500 0.550000 -0.062500
v 0.062500 0.050000 0.062500
v 0.062500 0.550000 0.062500
v 0.062500 0.050000 -0.062500
v 0.062500 0.550000 -0.062500
v -0.062500 1.600000 -0.187500
v -0.062500 2.100000 -0.187500
v -0.062500 1.600000 -0.312500
v -0.062500 2.100000 -0.312500
v 0.062500 1.600000 -0.187500
v 0.062500 2.100000 -0.187500
v 0.062500 1.600000 -0.312500
v 0.062500 2.100000 -0.312500
v -0.062500 1.600000 0.312500
v -0.062500 2.100000 0.312500
v -0.062500 1.600000 0.187500
v -0.062500 2.100000 0.187500
v 0.062500 1.600000 0.312500
v 0.062500 2.100000 0.312500
v 0.062500 1.600000 0.187500
v 0.062500 2.100000 0.187500
v -0.125000 0.125000 -0.375000
v -0.125000 1.375000 -0.375000
v -0.125000 0.125000 -0.625000
v -0.125000 1.375000 -0.625000
v 0.125000 0.125000 -0.375000
v 0.125000 1.375000 -0.375000
v 0.125000 0.125000 -0.625000
v 0.125000 1.375000 -0.625000
v 0.062500 2.037500 0.325000
v 0.062500 2.162500 0.325000
v 0.062500 2.037500 0.325000
v 0.062500 2.162500 0.325000
vt 0.642754 0.851059
vt 0.613416 0.807051
vt 0.642754 0.807051
vt 0.924745 0.173266
vt 0.900071 0.209558
vt 0.902111 0.173292
vt 0.701432 0.851059
vt 0.672093 0.807051
vt 0.701432 0.807051
vt 0.672093 0.851059
vt 0.672093 0.763043
vt 0.642754 0.763043
vt 0.642754 0.895067
vt 0.672093 0.895067
vt 0.613416 0.004750
vt 0.772331 0.009640
vt 0.613416 0.009640
vt 0.797660 0.407246
vt 0.828221 0.412136
vt 0.797660 0.412136
vt 0.159354 0.953055
vt 0.000439 0.948165
vt 0.159354 0.948165
vt 0.803772 0.006584
vt 0.773211 0.001694
vt 0.803772 0.001694
vt 0.956577 0.458855
vt 0.797660 0.413013
vt 0.956577 0.413014
vt 0.772333 0.056359
vt 0.613416 0.010517
vt 0.772333 0.010517
vt 0.702309 0.838627
vt 0.743125 0.854150
vt 0.728390 0.891504
vt 0.742035 0.810777
vt 0.756728 0.859323
vt 0.773858 0.833475
vt 0.763578 0.894291
vt 0.979121 0.395485
vt 0.949782 0.351477
vt 0.979121 0.351477
vt 0.788990 0.785741
vt 0.000439 0.918149
vt 0.306050 0.459733
vt 0.306050 0.918149
vt 0.000439 0.458855
vt 0.306050 0.000439
vt 0.306050 0.458855
vt 0.612537 0.976426
vt 0.306922 0.962735
vt 0.612537 0.962735
vt 0.612542 0.961857
vt 0.306922 0.948165
vt 0.612542 0.948165
vt 0.306927 0.919027
vt 0.612542 0.932717
vt 0.306927 0.932719
vt 0.919030 0.999561
vt 0.613416 0.985870
vt 0.919031 0.985870
vt 0.723463 0.182928
vt 0.799271 0.134645
vt 0.778908 0.142041
vt 0.779084 0.142089
vt 0.804769 0.109283
vt 0.785144 0.106444
vt 0.757523 0.057236
vt 0.820444 0.057902
vt 0.773211 0.007461
vt 0.820444 0.009776
vt 0.613416 0.057236
vt 0.861443 0.548760
vt 0.904175 0.595913
vt 0.870484 0.548760
vt 0.904800 0.609442
vt 0.925361 0.625565
vt 0.967160 0.671412
vt 0.849298 0.519108
vt 0.815915 0.459733
vt 0.613416 0.851059
vt 0.924248 0.207988
vt 0.772331 0.004750
vt 0.828221 0.407246
vt 0.000439 0.953055
vt 0.773211 0.006584
vt 0.797660 0.458855
vt 0.613416 0.056359
vt 0.788990 0.871592
vt 0.949782 0.395485
vt 0.757167 0.763043
vt 0.000439 0.459733
vt 0.000439 0.000439
vt 0.306922 0.976426
vt 0.306922 0.961856
vt 0.612542 0.919026
vt 0.613416 0.999561
vt 0.773211 0.056359
vt 0.306927 0.918149
vt 0.612538 0.459733
vt 0.612538 0.918149
vt 0.306927 0.458855
vt 0.612538 0.000439
vt 0.612538 0.458855
vt 0.306054 0.947288
vt 0.000439 0.933597
vt 0.306054 0.933596
vt 0.612547 0.947288
vt 0.306927 0.933596
vt 0.612547 0.933596
vt 0.000439 0.919027
vt 0.306054 0.932717
vt 0.000439 0.932719
vt 0.612537 0.990995
vt 0.306922 0.977304
vt 0.612537 0.977304
vt 0.825844 0.001326
vt 0.996801 0.154492
vt 0.825685 0.159385
vt 0.828083 0.004294
vt 0.996343 0.154989
vt 0.998267 0.001169
vt 0.998434 0.001902
vt 0.824875 0.159994
vt 0.825239 0.000585
vt 0.997470 0.154403
vt 0.827872 0.005333
vt 0.997496 0.005063
vt 0.826604 0.156668
vt 0.997591 0.003733
vt 0.997746 0.151769
vt 0.825373 0.158895
vt 0.998213 0.002874
vt 0.998213 0.155037
vt 0.306927 0.459733
vt 0.306927 0.000439
vt 0.000439 0.947288
vt 0.306927 0.947286
vt 0.306054 0.919026
vt 0.306922 0.990995
vt 0.998374 0.002411
vt 0.827188 0.155529
vt 0.999433 0.157452
vt 0.826329 0.157991
vt 0.829356 0.006820
vt 0.826737 0.002874
vt 0.622543 0.748474
vt 0.805910 0.473424
vt 0.805910 0.748474
vt 0.613416 0.458855
vt 0.796782 0.183805
vt 0.796782 0.458855
vt 0.805910 0.762165
vt 0.613416 0.748474
vt 0.622543 0.473424
vt 0.622543 0.459733
vt 0.815038 0.473424
vt 0.815038 0.748474
vt 0.852229 0.306457
vt 0.886545 0.245775
vt 0.843188 0.306457
vt 0.885920 0.259304
vt 0.948905 0.183805
vt 0.907106 0.229652
vt 0.797660 0.395485
vt 0.831042 0.336109
vt 0.965913 0.890915
vt 0.908829 0.886629
vt 0.943010 0.854381
vt 0.910621 0.851982
vt 0.917289 0.847274
vt 0.916316 0.839850
vt 0.933489 0.826409
vt 0.932708 0.819314
vt 0.920079 0.844075
vt 0.616952 0.979092
vt 0.628186 0.962253
vt 0.627757 0.978647
vt 0.626119 0.968086
vt 0.639942 0.939698
vt 0.658824 0.895944
vt 0.663260 0.984992
vt 0.634087 0.984992
vt 0.627725 0.959550
vt 0.860054 0.787746
vt 0.907952 0.672289
vt 0.861783 0.784279
vt 0.842169 0.170691
vt 0.887859 0.208786
vt 0.839082 0.208786
vt 0.815915 0.905254
vt 0.864402 0.789169
vt 0.907952 0.892798
vt 0.862366 0.792578
vt 0.817111 0.686205
vt 0.613416 0.183805
vt 0.622543 0.762165
vt 0.613416 0.473424
vt 0.805910 0.459733
vt 0.908829 0.971435
vt 0.933595 0.801523
vt 0.930318 0.831243
vt 0.624880 0.964979
vt 0.727189 0.962323
vt 0.613416 0.979588
vt 0.889916 0.172234
vn -1.0000 0.0000 0.0000
vn 0.0000 0.0000 -1.0000
vn 1.0000 0.0000 0.0000
vn 0.0000 0.0000 1.0000
vn 0.0000 -1.0000 0.0000
vn 0.0000 1.0000 0.0000
usemtl Material
s off
f 2/1/1 3/2/1 1/3/1
f 4/4/2 7/5/2 3/6/2
f 8/7/3 5/8/3 7/9/3
f 6/10/4 1/3/4 5/8/4
f 7/11/5 1/3/5 3/12/5
f 4/13/6 6/10/6 8/14/6
f 10/15/1 11/16/1 9/17/1
f 12/18/2 15/19/2 11/20/2
f 16/21/3 13/22/3 15/23/3
f 14/24/4 9/25/4 13/26/4
f 15/27/5 9/28/5 11/29/5
f 12/30/6 14/31/6 16/32/6
f 18/33/1 19/34/1 17/35/1
f 20/36/2 23/37/2 19/34/2
f 24/38/3 21/39/3 23/37/3
f 22/40/4 17/41/4 21/42/4
f 23/37/5 17/35/5 19/34/5
f 20/36/6 22/43/6 24/38/6
f 26/44/5 28/45/5 25/46/5
f 32/47/6 30/48/6 29/49/6
f 29/50/3 26/51/3 25/52/3
f 30/53/4 27/54/4 26/55/4
f 31/56/1 28/57/1 27/58/1
f 25/59/2 32/60/2 29/61/2
f 34/62/1 35/63/1 33/64/1
f 36/65/2 39/66/2 35/63/2
f 40/67/3 37/68/3 39/66/3
f 38/69/4 33/70/4 37/71/4
f 39/66/5 33/64/5 35/63/5
f 36/65/6 38/72/6 40/67/6
f 42/73/1 43/74/1 41/75/1
f 44/76/2 47/77/2 43/74/2
f 48/78/3 45/79/3 47/77/3
f 46/80/4 41/75/4 45/79/4
f 47/77/5 41/75/5 43/74/5
f 44/76/6 46/80/6 48/78/6
f 2/1/1 4/81/1 3/2/1
f 4/4/2 8/82/2 7/5/2
f 8/7/3 6/10/3 5/8/3
f 6/10/4 2/1/4 1/3/4
f 7/11/5 5/8/5 1/3/5
f 4/13/6 2/1/6 6/10/6
f 10/15/1 12/83/1 11/16/1
f 12/18/2 16/84/2 15/19/2
f 16/21/3 14/85/3 13/22/3
f 14/24/4 10/86/4 9/25/4
f 15/27/5 13/87/5 9/28/5
f 12/30/6 10/88/6 14/31/6
f 18/33/1 20/36/1 19/34/1
f 20/36/2 24/38/2 23/37/2
f 24/38/3 22/89/3 21/39/3
f 22/40/4 18/90/4 17/41/4
f 23/37/5 21/39/5 17/35/5
f 20/36/6 18/91/6 22/43/6
f 26/44/5 27/92/5 28/45/5
f 32/47/6 31/93/6 30/48/6
f 29/50/3 30/94/3 26/51/3
f 30/53/4 31/95/4 27/54/4
f 31/56/1 32/96/1 28/57/1
f 25/59/2 28/97/2 32/60/2
f 34/62/1 36/65/1 35/63/1
f 36/65/2 40/67/2 39/66/2
f 40/67/3 38/72/3 37/68/3
f 38/69/4 34/98/4 33/70/4
f 39/66/5 37/68/5 33/64/5
f 36/65/6 34/62/6 38/72/6
f 42/73/1 44/76/1 43/74/1
f 44/76/2 48/78/2 47/77/2
f 48/78/3 46/80/3 45/79/3
f 46/80/4 42/73/4 41/75/4
f 47/77/5 45/79/5 41/75/5
f 44/76/6 42/73/6 46/80/6
f 50/99/5 52/100/5 49/101/5
f 56/102/6 54/103/6 53/104/6
f 53/105/3 50/106/3 49/107/3
f 54/108/4 51/109/4 50/110/4
f 55/111/1 52/112/1 51/113/1
f 49/114/2 56/115/2 53/116/2
f 58/117/1 59/118/1 57/119/1
f 60/120/2 63/121/2 59/122/2
f 64/123/3 61/124/3 63/125/3
f 62/126/4 57/127/4 61/128/4
f 63/129/5 57/130/5 59/131/5
f 60/132/6 62/133/6 64/134/6
f 50/99/5 51/135/5 52/100/5
f 56/102/6 55/136/6 54/103/6
f 53/105/3 54/137/3 50/106/3
f 54/108/4 55/138/4 51/109/4
f 55/111/1 56/139/1 52/112/1
f 49/114/2 52/140/2 56/115/2
f 58/117/1 60/141/1 59/118/1
f 60/120/2 64/142/2 63/121/2
f 64/123/3 62/143/3 61/124/3
f 62/126/4 58/144/4 57/127/4
f 63/129/5 61/145/5 57/130/5
f 60/132/6 58/146/6 62/133/6
usemtl Material.002
f 66/147/5 68/148/5 65/149/5
f 72/150/6 70/151/6 69/152/6
f 69/153/3 66/147/3 65/149/3
f 70/154/4 67/155/4 66/147/4
f 71/156/1 68/148/1 67/155/1
f 65/149/2 72/157/2 69/158/2
f 74/159/1 75/160/1 73/161/1
f 76/162/2 79/163/2 75/160/2
f 80/164/3 77/165/3 79/163/3
f 78/166/4 73/161/4 77/165/4
f 79/163/5 73/161/5 75/160/5
f 76/162/6 78/166/6 80/164/6
f 82/167/1 83/168/1 81/169/1
f 84/170/2 87/171/2 83/168/2
f 88/172/3 85/173/3 87/171/3
f 86/174/4 81/169/4 85/173/4
f 87/171/5 81/169/5 83/168/5
f 84/170/6 86/174/6 88/175/6
f 90/176/1 91/177/1 89/178/1
f 92/179/2 95/180/2 91/177/2
f 96/181/3 93/182/3 95/180/3
f 94/183/4 89/178/4 93/182/4
f 95/180/5 89/178/5 91/177/5
f 92/179/6 94/183/6 96/184/6
f 98/185/1 99/186/1 97/187/1
f 100/188/2 103/189/2 99/190/2
f 104/191/3 101/192/3 103/193/3
f 102/194/4 97/187/4 101/192/4
f 103/193/5 97/187/5 99/186/5
f 100/195/6 102/194/6 104/191/6
f 66/147/5 67/155/5 68/148/5
f 72/150/6 71/196/6 70/151/6
f 69/153/3 70/197/3 66/147/3
f 70/154/4 71/198/4 67/155/4
f 71/156/1 72/199/1 68/148/1
f 65/149/2 68/148/2 72/157/2
f 74/159/1 76/162/1 75/160/1
f 76/162/2 80/164/2 79/163/2
f 80/164/3 78/166/3 77/165/3
f 78/166/4 74/159/4 73/161/4
f 79/163/5 77/165/5 73/161/5
f 76/162/6 74/159/6 78/166/6
f 82/167/1 84/200/1 83/168/1
f 84/170/2 88/175/2 87/171/2
f 88/172/3 86/201/3 85/173/3
f 86/174/4 82/202/4 81/169/4
f 87/171/5 85/173/5 81/169/5
f 84/170/6 82/202/6 86/174/6
f 90/176/1 92/203/1 91/177/1
f 92/179/2 96/184/2 95/180/2
f 96/181/3 94/204/3 93/182/3
f 94/183/4 90/205/4 89/178/4
f 95/180/5 93/182/5 89/178/5
f 92/179/6 90/205/6 94/183/6
f 98/185/1 100/195/1 99/186/1
f 100/188/2 104/206/2 103/189/2
f 104/191/3 102/194/3 101/192/3
f 102/194/4 98/185/4 97/187/4
f 103/193/5 101/192/5 97/187/5
f 100/195/6 98/185/6 102/194/6
