# Blender v2.79 (sub 0) OBJ File: 'ghost.blend'
# www.blender.org
mtllib ghost.mtl
v 0.058089 0.093893 0.057907
v 0.058089 0.113893 0.057907
v 0.058089 0.093893 0.037907
v 0.058089 0.113893 0.037907
v 0.078089 0.093893 0.057907
v 0.078089 0.113893 0.057907
v 0.078089 0.093893 0.037907
v 0.078089 0.113893 0.037907
v 0.042045 0.238558 0.024231
v 0.036291 0.250898 0.045198
v 0.013633 0.240333 0.045198
v 0.019388 0.227992 0.024231
v -0.011120 0.352572 -0.057465
v -0.016875 0.364912 -0.036498
v -0.039532 0.354347 -0.036498
v -0.033778 0.342006 -0.057465
v 0.106421 0.227992 0.024231
v 0.112175 0.240333 0.045198
v 0.089518 0.250898 0.045198
v 0.083763 0.238558 0.024231
v 0.159587 0.342006 -0.057465
v 0.165341 0.354347 -0.036498
v 0.142683 0.364912 -0.036498
v 0.136929 0.352572 -0.057465
v 0.084417 0.103952 0.020036
v 0.084417 0.103952 0.060036
v 0.044417 0.103952 0.060035
v 0.044417 0.103952 0.020036
v 0.084417 0.128952 0.020036
v 0.084417 0.128952 0.060036
v 0.044417 0.128952 0.060035
v 0.044417 0.128952 0.020036
v 0.114417 0.148191 -0.038840
v 0.114417 0.148191 0.061160
v 0.014417 0.148191 0.061160
v 0.014417 0.148191 -0.038840
v 0.114417 0.398191 -0.038840
v 0.114417 0.398191 0.061160
v 0.014417 0.398191 0.061160
v 0.014417 0.398191 -0.038840
v 0.104417 0.116452 -0.019964
v 0.104417 0.116452 0.060036
v 0.024417 0.116452 0.060035
v 0.024417 0.116452 -0.019964
v 0.104417 0.166452 -0.019964
v 0.104417 0.166452 0.060036
v 0.024417 0.166452 0.060035
v 0.024417 0.166452 -0.019964
vt 0.736247 0.566179
vt 0.778086 0.608018
vt 0.736247 0.608018
vt 0.736247 0.608922
vt 0.778086 0.650761
vt 0.736247 0.650761
vt 0.347430 0.902697
vt 0.305592 0.860858
vt 0.347430 0.860858
vt 0.210550 0.829480
vt 0.168711 0.787641
vt 0.210550 0.787641
vt 0.736247 0.693504
vt 0.778086 0.651665
vt 0.778086 0.693504
vt 0.348335 0.902697
vt 0.390173 0.860858
vt 0.390173 0.902697
vt 0.304687 0.913157
vt 0.252389 0.860858
vt 0.304687 0.860858
vt 0.221010 0.786736
vt 0.196491 0.790300
vt 0.235561 0.846161
vt 0.893142 0.314242
vt 0.840844 0.000452
vt 0.893142 0.000452
vt 0.999548 0.000452
vt 0.947249 0.314242
vt 0.947249 0.000452
vt 0.893142 0.628937
vt 0.840844 0.315146
vt 0.893142 0.315146
vt 0.894047 0.629841
vt 0.946345 0.943631
vt 0.894047 0.943631
vt 0.778086 0.566179
vt 0.778086 0.608922
vt 0.305592 0.902697
vt 0.168711 0.829480
vt 0.736247 0.651665
vt 0.348335 0.860858
vt 0.252389 0.913157
vt 0.168711 0.786736
vt 0.840844 0.314242
vt 0.999548 0.314242
vt 0.840844 0.628937
vt 0.946345 0.629841
vt 0.221914 0.839939
vt 0.169616 0.892238
vt 0.169616 0.839939
vt 0.787641 0.891333
vt 0.839939 0.839035
vt 0.839939 0.891333
vt 0.946345 0.000452
vt 0.894047 0.314242
vt 0.894047 0.000452
vt 0.839939 0.838130
vt 0.787641 0.524340
vt 0.839939 0.524340
vt 0.893142 0.943631
vt 0.840844 0.629841
vt 0.893142 0.629841
vt 0.894047 0.628937
vt 0.946345 0.315147
vt 0.946345 0.628937
vt 0.221914 0.892238
vt 0.787641 0.839035
vt 0.946345 0.314242
vt 0.787641 0.838131
vt 0.840844 0.943631
vt 0.894047 0.315147
vt 0.085034 0.923617
vt 0.168711 0.839939
vt 0.168711 0.923617
vt 0.084130 0.923617
vt 0.000452 0.839939
vt 0.084130 0.839939
vt 0.673489 0.892237
vt 0.589812 0.839939
vt 0.673489 0.839939
vt 0.588907 0.892238
vt 0.505230 0.839939
vt 0.588907 0.839939
vt 0.674393 0.892238
vt 0.758071 0.839939
vt 0.758071 0.892237
vt 0.504325 0.839939
vt 0.420648 0.892238
vt 0.420648 0.839939
vt 0.085034 0.839939
vt 0.000452 0.923617
vt 0.589812 0.892237
vt 0.505230 0.892238
vt 0.674393 0.839939
vt 0.504325 0.892237
vt 0.629841 0.733533
vt 0.420648 0.524340
vt 0.629841 0.524340
vt 0.097205 0.724223
vt 0.000452 0.524340
vt 0.095882 0.687270
vt 0.419743 0.523436
vt 0.210550 0.000452
vt 0.419743 0.000452
vt 0.839939 0.523436
vt 0.630746 0.000452
vt 0.839939 0.000452
vt 0.090591 0.372144
vt 0.000452 0.000452
vt 0.209646 0.000452
vt 0.097876 0.363553
vt 0.309715 0.788778
vt 0.099199 0.793434
vt 0.420648 0.733533
vt 0.000452 0.733534
vt 0.309763 0.355851
vt 0.630746 0.523436
vt 0.000452 0.523436
vt 0.309715 0.363553
vt 0.419743 0.691695
vt 0.318530 0.531323
vt 0.419743 0.524340
vt 0.325145 0.788029
vt 0.419743 0.859954
vt 0.252389 0.859954
vt 0.116216 0.767024
vt 0.000452 0.839035
vt 0.000452 0.734438
vt 0.588003 0.839035
vt 0.420648 0.734438
vt 0.588003 0.734438
vt 0.630746 0.733533
vt 0.735342 0.566179
vt 0.735342 0.733533
vt 0.756262 0.839035
vt 0.588907 0.734438
vt 0.756262 0.734438
vt 0.321176 0.617213
vt 0.419743 0.692599
vt 0.167807 0.839035
vt 0.420648 0.839035
vt 0.630746 0.566179
vt 0.588907 0.839035
vn -1.0000 0.0000 0.0000
vn 0.0000 0.0000 -1.0000
vn 1.0000 0.0000 0.0000
vn 0.0000 0.0000 1.0000
vn 0.0000 -1.0000 0.0000
vn 0.0000 1.0000 0.0000
vn 0.3544 -0.7601 0.5446
vn -0.3544 0.7601 -0.5446
vn 0.9063 0.4226 0.0000
vn -0.2302 0.4936 0.8387
vn -0.9063 -0.4226 0.0000
vn 0.2302 -0.4936 -0.8387
vn -0.3544 -0.7601 0.5446
vn 0.3544 0.7601 -0.5446
vn 0.9063 -0.4226 0.0000
vn 0.2302 0.4936 0.8387
vn -0.9063 0.4226 0.0000
vn -0.2302 -0.4936 -0.8387
usemtl None
s off
f 2/1/1 3/2/1 1/3/1
f 4/4/2 7/5/2 3/6/2
f 8/7/3 5/8/3 7/9/3
f 6/10/4 1/11/4 5/12/4
f 7/13/5 1/14/5 3/15/5
f 4/16/6 6/17/6 8/18/6
f 9/19/7 11/20/7 12/21/7
f 13/22/8 15/23/8 14/24/8
f 13/25/9 10/26/9 9/27/9
f 10/28/10 15/29/10 11/30/10
f 15/31/11 12/32/11 11/33/11
f 9/34/12 16/35/12 13/36/12
f 2/1/1 4/37/1 3/2/1
f 4/4/2 8/38/2 7/5/2
f 8/7/3 6/39/3 5/8/3
f 6/10/4 2/40/4 1/11/4
f 7/13/5 5/41/5 1/14/5
f 4/16/6 2/42/6 6/17/6
f 9/19/7 10/43/7 11/20/7
f 13/22/8 16/44/8 15/23/8
f 13/25/9 14/45/9 10/26/9
f 10/28/10 14/46/10 15/29/10
f 15/31/11 16/47/11 12/32/11
f 9/34/12 12/48/12 16/35/12
f 18/49/13 20/50/13 17/51/13
f 24/52/14 22/53/14 21/54/14
f 17/55/15 22/56/15 18/57/15
f 22/58/16 19/59/16 18/60/16
f 23/61/17 20/62/17 19/63/17
f 21/64/18 20/65/18 24/66/18
f 18/49/13 19/67/13 20/50/13
f 24/52/14 23/68/14 22/53/14
f 17/55/15 21/69/15 22/56/15
f 22/58/16 23/70/16 19/59/16
f 23/61/17 24/71/17 20/62/17
f 21/64/18 17/72/18 20/65/18
usemtl Material
f 26/73/5 28/74/5 25/75/5
f 29/76/6 31/77/6 30/78/6
f 29/79/3 26/80/3 25/81/3
f 30/82/4 27/83/4 26/84/4
f 27/85/1 32/86/1 28/87/1
f 29/88/2 28/89/2 32/90/2
f 26/73/5 27/91/5 28/74/5
f 29/76/6 32/92/6 31/77/6
f 29/79/3 30/93/3 26/80/3
f 30/82/4 31/94/4 27/83/4
f 27/85/1 31/95/1 32/86/1
f 29/88/2 25/96/2 28/89/2
f 33/97/5 35/98/5 36/99/5
f 37/100/6 39/101/6 38/102/6
f 37/103/3 34/104/3 33/105/3
f 38/106/4 35/107/4 34/108/4
f 39/109/1 36/110/1 35/111/1
f 33/112/2 40/113/2 37/114/2
f 33/97/5 34/115/5 35/98/5
f 37/100/6 40/116/6 39/101/6
f 37/103/3 38/117/3 34/104/3
f 38/106/4 39/118/4 35/107/4
f 39/109/1 40/119/1 36/110/1
f 33/112/2 36/120/2 40/113/2
usemtl None
f 41/121/5 43/122/5 44/123/5
f 45/124/6 47/125/6 46/126/6
f 41/127/3 46/128/3 42/129/3
f 46/130/4 43/131/4 42/132/4
f 47/133/1 44/134/1 43/135/1
f 41/136/2 48/137/2 45/138/2
f 41/121/5 42/139/5 43/122/5
f 45/124/6 48/140/6 47/125/6
f 41/127/3 45/141/3 46/128/3
f 46/130/4 47/142/4 43/131/4
f 47/133/1 48/143/1 44/134/1
f 41/136/2 44/144/2 48/137/2
