# Blender v2.79 (sub 0) OBJ File: 'grave.blend'
# www.blender.org
mtllib graved.mtl
v -0.500000 0.937500 0.062500
v -0.500000 1.062500 0.062500
v -0.500000 0.937500 -0.062500
v -0.500000 1.062500 -0.062500
v 0.500000 0.937500 0.062500
v 0.500000 1.062500 0.062500
v 0.500000 0.937500 -0.062500
v 0.500000 1.062500 -0.062500
v 0.250000 0.075000 -0.250000
v 0.250000 0.075000 0.250000
v -0.250000 0.075000 0.250000
v -0.250000 0.075000 -0.250000
v 0.250000 0.425000 -0.250000
v 0.250000 0.425000 0.250000
v -0.250000 0.425000 0.250000
v -0.250000 0.425000 -0.250000
v 0.375000 -0.150000 -0.375000
v 0.375000 -0.150000 0.375000
v -0.375000 -0.150000 0.375000
v -0.375000 -0.150000 -0.375000
v 0.375000 0.150000 -0.375000
v 0.375000 0.150000 0.375000
v -0.375000 0.150000 0.375000
v -0.375000 0.150000 -0.375000
v -0.062500 0.125000 0.062500
v -0.062500 1.375000 0.062500
v -0.062500 0.125000 -0.062500
v -0.062500 1.375000 -0.062500
v 0.062500 0.125000 0.062500
v 0.062500 1.375000 0.062500
v 0.062500 0.125000 -0.062500
v 0.062500 1.375000 -0.062500
vt 1.000000 0.000000
vt 0.000000 1.000000
vt 0.000000 0.000000
vt 1.000000 0.000000
vt 0.000000 1.000000
vt 0.000000 0.000000
vt 1.000000 0.000000
vt 0.000000 1.000000
vt 0.000000 0.000000
vt 1.000000 0.000000
vt 0.000000 1.000000
vt 0.000000 0.000000
vt 1.000000 0.000000
vt 0.000000 1.000000
vt 0.000000 0.000000
vt 0.000000 0.000000
vt 1.000000 1.000000
vt 0.000000 1.000000
vt 0.000000 0.000000
vt 1.000000 1.000000
vt 0.000000 1.000000
vt 1.000000 0.000000
vt 0.000000 1.000000
vt 1.000000 0.000000
vt 0.000000 1.000000
vt 0.000000 0.000000
vt 1.000000 0.000000
vt 0.000000 0.000000
vt 1.000000 0.000000
vt 0.000000 1.000000
vt 0.000000 0.000000
vt 1.000000 1.000000
vt 0.000000 1.000000
vt 0.000000 0.000000
vt 1.000000 1.000000
vt 0.000000 1.000000
vt 1.000000 0.000000
vt 0.000000 1.000000
vt 1.000000 0.000000
vt 0.000000 1.000000
vt 0.000000 0.000000
vt 0.000000 0.000000
vt 1.000000 1.000000
vt 1.000000 0.000000
vt 0.000000 1.000000
vt 1.000000 0.000000
vt 0.000000 1.000000
vt 0.000000 0.000000
vt 1.000000 0.000000
vt 0.000000 1.000000
vt 0.000000 0.000000
vt 1.000000 0.000000
vt 0.000000 1.000000
vt 0.000000 0.000000
vt 1.000000 0.000000
vt 0.000000 1.000000
vt 0.000000 0.000000
vt 1.000000 0.000000
vt 0.000000 1.000000
vt 0.000000 0.000000
vt 1.000000 1.000000
vt 1.000000 1.000000
vt 1.000000 1.000000
vt 1.000000 1.000000
vt 1.000000 1.000000
vt 1.000000 0.000000
vt 1.000000 0.000000
vt 1.000000 1.000000
vt 1.000000 1.000000
vt 1.000000 1.000000
vt 1.000000 0.000000
vt 1.000000 0.000000
vt 1.000000 1.000000
vt 1.000000 0.000000
vt 1.000000 1.000000
vt 1.000000 1.000000
vt 1.000000 1.000000
vt 1.000000 1.000000
vt 1.000000 1.000000
vt 1.000000 1.000000
vn -1.0000 0.0000 0.0000
vn 0.0000 0.0000 -1.0000
vn 1.0000 0.0000 0.0000
vn 0.0000 0.0000 1.0000
vn 0.0000 -1.0000 0.0000
vn 0.0000 1.0000 0.0000
usemtl Material.002
s off
f 2/1/1 3/2/1 1/3/1
f 4/4/2 7/5/2 3/6/2
f 8/7/3 5/8/3 7/9/3
f 6/10/4 1/11/4 5/12/4
f 7/13/5 1/11/5 3/6/5
f 4/4/6 6/14/6 8/15/6
f 9/16/5 11/17/5 12/18/5
f 13/19/6 15/20/6 14/21/6
f 13/22/3 10/23/3 9/16/3
f 14/24/4 11/25/4 10/26/4
f 15/27/1 12/18/1 11/28/1
f 9/29/2 16/30/2 13/19/2
f 17/31/5 19/32/5 20/33/5
f 21/34/6 23/35/6 22/36/6
f 21/37/3 18/38/3 17/31/3
f 22/39/4 19/40/4 18/41/4
f 19/42/1 24/43/1 20/33/1
f 17/44/2 24/45/2 21/34/2
f 26/46/1 27/47/1 25/48/1
f 28/49/2 31/50/2 27/51/2
f 32/52/3 29/53/3 31/54/3
f 30/55/4 25/56/4 29/57/4
f 31/58/5 25/56/5 27/51/5
f 28/49/6 30/59/6 32/60/6
f 2/1/1 4/61/1 3/2/1
f 4/4/2 8/62/2 7/5/2
f 8/7/3 6/63/3 5/8/3
f 6/10/4 2/64/4 1/11/4
f 7/13/5 5/65/5 1/11/5
f 4/4/6 2/64/6 6/14/6
f 9/16/5 10/66/5 11/17/5
f 13/19/6 16/67/6 15/20/6
f 13/22/3 14/68/3 10/23/3
f 14/24/4 15/20/4 11/25/4
f 15/27/1 16/69/1 12/18/1
f 9/29/2 12/70/2 16/30/2
f 17/31/5 18/71/5 19/32/5
f 21/34/6 24/72/6 23/35/6
f 21/37/3 22/73/3 18/38/3
f 22/39/4 23/35/4 19/40/4
f 19/42/1 23/74/1 24/43/1
f 17/44/2 20/75/2 24/45/2
f 26/46/1 28/76/1 27/47/1
f 28/49/2 32/77/2 31/50/2
f 32/52/3 30/78/3 29/53/3
f 30/55/4 26/79/4 25/56/4
f 31/58/5 29/80/5 25/56/5
f 28/49/6 26/79/6 30/59/6
