# Blender v2.79 (sub 0) OBJ File: 'shed.blend'
# www.blender.org
v 1.499999 -0.075000 -1.499999
v 1.499999 -0.075000 1.499999
v -1.499999 -0.075000 1.499999
v -1.499999 -0.075000 -1.500000
v 1.500000 0.075000 -1.499998
v 1.499998 0.075000 1.500000
v -1.500000 0.075000 1.499999
v -1.499999 0.075000 -1.499999
vn 0.0000 -1.0000 0.0000
vn 0.0000 1.0000 -0.0000
vn 1.0000 -0.0000 0.0000
vn -0.0000 -0.0000 1.0000
vn -1.0000 -0.0000 -0.0000
vn 0.0000 0.0000 -1.0000
s off
f 2//1 4//1 1//1
f 8//2 6//2 5//2
f 5//3 2//3 1//3
f 6//4 3//4 2//4
f 3//5 8//5 4//5
f 1//6 8//6 5//6
f 2//1 3//1 4//1
f 8//2 7//2 6//2
f 5//3 6//3 2//3
f 6//4 7//4 3//4
f 3//5 7//5 8//5
f 1//6 4//6 8//6
v 1.499999 -0.010000 -1.575000
v 1.499999 -0.010000 -1.425000
v -1.499999 -0.010000 -1.425000
v -1.499999 -0.010000 -1.575000
v 1.500000 3.590000 -1.575000
v 1.499998 3.590000 -1.425000
v -1.500000 3.590000 -1.425000
v -1.499999 3.590000 -1.575000
vn 0.0000 -1.0000 0.0000
vn 0.0000 1.0000 -0.0000
vn 1.0000 -0.0000 0.0000
vn 0.0000 -0.0000 1.0000
vn -1.0000 -0.0000 -0.0000
vn 0.0000 0.0000 -1.0000
s off
f 10//7 12//7 9//7
f 16//8 14//8 13//8
f 13//9 10//9 9//9
f 14//10 11//10 10//10
f 11//11 16//11 12//11
f 9//12 16//12 13//12
f 10//7 11//7 12//7
f 16//8 15//8 14//8
f 13//9 14//9 10//9
f 14//10 15//10 11//10
f 11//11 15//11 16//11
f 9//12 12//12 16//12
v 1.499999 -0.010000 1.425000
v 1.499999 -0.010000 1.575000
v -1.499999 -0.010000 1.575000
v -1.499999 -0.010000 1.425000
v 1.500000 3.590000 1.425000
v 1.499998 3.590000 1.575000
v -1.500000 3.590000 1.575000
v -1.499999 3.590000 1.425000
vn 0.0000 -1.0000 0.0000
vn 0.0000 1.0000 -0.0000
vn 1.0000 -0.0000 0.0000
vn 0.0000 -0.0000 1.0000
vn -1.0000 -0.0000 -0.0000
vn 0.0000 0.0000 -1.0000
s off
f 18//13 20//13 17//13
f 24//14 22//14 21//14
f 21//15 18//15 17//15
f 22//16 19//16 18//16
f 19//17 24//17 20//17
f 17//18 24//18 21//18
f 18//13 19//13 20//13
f 24//14 23//14 22//14
f 21//15 22//15 18//15
f 22//16 23//16 19//16
f 19//17 23//17 24//17
f 17//18 20//18 24//18
v -1.425000 0.075000 -1.499999
v -1.425000 0.075000 1.499999
v -1.575000 0.075000 1.499999
v -1.575000 0.075000 -1.500000
v -1.425000 3.325000 -1.499998
v -1.425000 3.325000 1.500000
v -1.575000 3.325000 1.499999
v -1.575000 3.325000 -1.499999
vn 0.0000 -1.0000 0.0000
vn 0.0000 1.0000 0.0000
vn 1.0000 -0.0000 0.0000
vn -0.0000 -0.0000 1.0000
vn -1.0000 0.0000 0.0000
vn 0.0000 0.0000 -1.0000
s off
f 26//19 28//19 25//19
f 32//20 30//20 29//20
f 29//21 26//21 25//21
f 30//22 27//22 26//22
f 27//23 32//23 28//23
f 25//24 32//24 29//24
f 26//19 27//19 28//19
f 32//20 31//20 30//20
f 29//21 30//21 26//21
f 30//22 31//22 27//22
f 27//23 31//23 32//23
f 25//24 28//24 32//24
v 1.575000 -0.025000 -1.499999
v 1.575000 -0.025000 1.499999
v 1.425000 -0.025000 1.499999
v 1.425000 -0.025000 -1.500000
v 1.575000 3.725000 -1.499998
v 1.575000 3.725000 1.500000
v 1.425000 3.725000 1.499999
v 1.425000 3.725000 -1.499999
vn 0.0000 -1.0000 0.0000
vn 0.0000 1.0000 0.0000
vn 1.0000 0.0000 0.0000
vn -0.0000 -0.0000 1.0000
vn -1.0000 -0.0000 0.0000
vn 0.0000 0.0000 -1.0000
s off
f 34//25 36//25 33//25
f 40//26 38//26 37//26
f 37//27 34//27 33//27
f 38//28 35//28 34//28
f 35//29 40//29 36//29
f 33//30 40//30 37//30
f 34//25 35//25 36//25
f 40//26 39//26 38//26
f 37//27 38//27 34//27
f 38//28 39//28 35//28
f 35//29 39//29 40//29
f 33//30 36//30 40//30
v 1.799687 3.732166 -1.800000
v 1.799687 3.732166 1.800000
v -1.786614 3.418405 1.800000
v -1.786613 3.418405 -1.800001
v 1.786615 3.881595 -1.799999
v 1.786613 3.881595 1.800001
v -1.799688 3.567834 1.799999
v -1.799687 3.567834 -1.800000
vn 0.0872 -0.9962 0.0000
vn -0.0872 0.9962 -0.0000
vn 0.9962 0.0872 0.0000
vn 0.0000 -0.0000 1.0000
vn -0.9962 -0.0872 -0.0000
vn -0.0000 0.0000 -1.0000
s off
f 42//31 44//31 41//31
f 48//32 46//32 45//32
f 45//33 42//33 41//33
f 46//34 43//34 42//34
f 43//35 48//35 44//35
f 41//36 48//36 45//36
f 42//31 43//31 44//31
f 48//32 47//32 46//32
f 45//33 46//33 42//33
f 46//34 47//34 43//34
f 43//35 47//35 48//35
f 41//36 44//36 48//36
