# Blender v2.79 (sub 0) OBJ File: 'sign.blend'
# www.blender.org
mtllib signfinal.mtl
v 0.125000 0.674999 -0.400000
v 0.125000 0.674999 0.400000
v -0.125000 0.674999 0.400000
v -0.125000 0.674999 -0.400000
v 0.125000 1.225000 -0.400000
v 0.125000 1.225000 0.400000
v -0.125000 1.225000 0.400000
v -0.125000 1.225000 -0.400000
v 0.075000 0.005000 -0.075000
v 0.075000 0.005000 0.075000
v -0.075000 0.005000 0.075000
v -0.075000 0.005000 -0.075000
v 0.075000 0.675000 -0.075000
v 0.075000 0.675000 0.075000
v -0.075000 0.675000 0.075000
v -0.075000 0.675000 -0.075000
vt 0.006812 0.991651
vt 1.000471 0.820355
vt 0.996061 0.985037
vt 0.000290 1.004972
vt 1.002767 0.013518
vt 1.007177 0.998358
vt 1.000470 0.998358
vt 0.011221 0.013518
vt 1.009290 -0.006325
vt 1.002767 0.991559
vt 0.004699 -0.006509
vt 1.002767 -0.026352
vt 0.000105 0.985129
vt 1.002583 0.000290
vt 0.998173 0.991744
vt 1.002767 0.998266
vt -0.004120 0.006812
vt 0.993948 0.006812
vt 0.002402 0.846811
vt 0.000290 0.000290
vt 0.011221 0.998358
vt 0.009109 0.998173
vt 0.000105 0.000290
vt 0.000290 0.998266
vt 0.816773 0.606548
vt 0.621837 0.369804
vt 0.807954 0.369804
vt 0.621837 0.369225
vt 0.807954 0.311063
vt 0.807954 0.369225
vt 0.999522 0.827486
vt 0.001669 0.614977
vt 0.999522 0.620227
vt 0.994625 0.170262
vt 0.003559 0.002376
vt 0.998125 0.007626
vt 0.997772 0.386037
vt 0.001669 0.173529
vt 0.994272 0.184028
vt 0.003083 0.600592
vt 0.993418 0.398726
vt 0.996917 0.600592
vt 0.617428 0.599934
vt 0.621837 0.311063
vt 0.001669 0.816986
vt 0.001809 0.167638
vt -0.000081 0.380788
vt 0.008332 0.382977
vn 0.0000 -1.0000 0.0000
vn 0.0000 1.0000 0.0000
vn 1.0000 -0.0000 0.0000
vn -0.0000 -0.0000 1.0000
vn -1.0000 -0.0000 -0.0000
vn 0.0000 0.0000 -1.0000
usemtl Material
s off
f 2/1/1 4/2/1 1/3/1
f 8/4/2 6/5/2 5/6/2
f 5/7/3 2/8/3 1/9/3
f 6/10/4 3/11/4 2/12/4
f 3/13/5 8/14/5 4/15/5
f 1/16/6 8/17/6 5/18/6
f 2/1/1 3/19/1 4/2/1
f 8/4/2 7/20/2 6/5/2
f 5/7/3 6/21/3 2/8/3
f 6/10/4 7/22/4 3/11/4
f 3/13/5 7/23/5 8/14/5
f 1/16/6 4/24/6 8/17/6
usemtl Material.001
f 10/25/1 12/26/1 9/27/1
f 16/28/2 14/29/2 13/30/2
f 13/31/3 10/32/3 9/33/3
f 14/34/4 11/35/4 10/36/4
f 15/37/5 12/38/5 11/39/5
f 9/40/6 16/41/6 13/42/6
f 10/25/1 11/43/1 12/26/1
f 16/28/2 15/44/2 14/29/2
f 13/31/3 14/45/3 10/32/3
f 14/34/4 15/46/4 11/35/4
f 15/37/5 16/47/5 12/38/5
f 9/40/6 12/48/6 16/41/6
