# Blender v2.79 (sub 0) OBJ File: 'treehopefullyworks1.blend'
# www.blender.org
mtllib treehopefullyworks1.mtl
v -0.250000 1.100000 0.250000
v -0.250000 1.600000 0.250000
v -0.250000 1.100000 -0.250000
v -0.250000 1.600000 -0.250000
v 0.250000 1.100000 0.250000
v 0.250000 1.600000 0.250000
v 0.250000 1.100000 -0.250000
v 0.250000 1.600000 -0.250000
v -0.375000 1.000000 0.375000
v -0.375000 1.500000 0.375000
v -0.375000 1.000000 -0.375000
v -0.375000 1.500000 -0.375000
v 0.375000 1.000000 0.375000
v 0.375000 1.500000 0.375000
v 0.375000 1.000000 -0.375000
v 0.375000 1.500000 -0.375000
v -0.500000 0.750000 0.500000
v -0.500000 1.250000 0.500000
v -0.500000 0.750000 -0.500000
v -0.500000 1.250000 -0.500000
v 0.500000 0.750000 0.500000
v 0.500000 1.250000 0.500000
v 0.500000 0.750000 -0.500000
v 0.500000 1.250000 -0.500000
v -0.125000 -0.750000 0.125000
v -0.125000 0.750000 0.125000
v -0.125000 -0.750000 -0.125000
v -0.125000 0.750000 -0.125000
v 0.125000 -0.750000 0.125000
v 0.125000 0.750000 0.125000
v 0.125000 -0.750000 -0.125000
v 0.125000 0.750000 -0.125000
vt 0.789620 0.000267
vt 0.789620 0.158031
vt 0.710738 0.079149
vt 0.868502 0.236913
vt 0.710738 0.236913
vt 0.631857 0.315795
vt 0.631857 0.158031
vt 0.552975 0.079149
vt 0.395211 0.888177
vt 0.506767 0.776621
vt 0.506767 0.888177
vt 0.118590 0.947384
vt 0.079149 0.750179
vt 0.197472 0.868502
vt 0.000267 0.671298
vt 0.197472 0.631857
vt 0.276354 0.552975
vt 0.315795 0.750179
vt 0.394676 0.829061
vt 0.618858 0.720308
vt 0.786191 0.552975
vt 0.786191 0.720308
vt 0.776621 0.428420
vt 0.999733 0.539976
vt 0.776621 0.539976
vt 0.776621 0.316329
vt 0.999733 0.427885
vt 0.776621 0.427885
vt 0.841969 0.832399
vt 0.618858 0.720843
vt 0.841969 0.720843
vt 0.841969 0.944489
vt 0.618858 0.832934
vt 0.841969 0.832934
vt 0.552975 0.539441
vt 0.776086 0.316329
vt 0.776086 0.539441
vt 0.618323 0.776086
vt 0.395211 0.552975
vt 0.618323 0.552975
vt 0.276354 0.315795
vt 0.552440 0.512999
vt 0.512999 0.552440
vt 0.315795 0.276354
vt 0.512999 0.000267
vt 0.552440 0.039708
vt 0.276354 0.236913
vt 0.000267 0.039708
vt 0.039708 0.000267
vt 0.236913 0.276354
vt 0.039708 0.552440
vt 0.000267 0.512999
vt 0.507302 0.832399
vt 0.563080 0.776621
vt 0.563080 0.832399
vt 0.868502 0.079149
vt 0.789620 0.315795
vt 0.552975 0.236913
vt 0.631857 0.000267
vt 0.395211 0.776621
vt 0.000267 0.829061
vt 0.118590 0.552975
vt 0.394676 0.671298
vt 0.276354 0.947384
vt 0.618858 0.552975
vt 0.999733 0.428420
vt 0.999733 0.316329
vt 0.618858 0.832399
vt 0.618858 0.944489
vt 0.552975 0.316329
vt 0.395211 0.776086
vt 0.507302 0.776621
vn -1.0000 0.0000 0.0000
vn 0.0000 0.0000 -1.0000
vn 1.0000 0.0000 0.0000
vn 0.0000 0.0000 1.0000
vn 0.0000 -1.0000 0.0000
vn 0.0000 1.0000 0.0000
usemtl Material.001
s off
f 2/1/1 3/2/1 1/3/1
f 4/4/2 7/5/2 3/2/2
f 8/6/3 5/7/3 7/5/3
f 6/8/4 1/3/4 5/7/4
f 7/5/5 1/3/5 3/2/5
f 4/9/6 6/10/6 8/11/6
f 10/12/1 11/13/1 9/14/1
f 12/15/2 15/16/2 11/13/2
f 16/17/3 13/18/3 15/16/3
f 14/19/4 9/14/4 13/18/4
f 15/16/5 9/14/5 11/13/5
f 12/20/6 14/21/6 16/22/6
f 18/23/1 19/24/1 17/25/1
f 20/26/2 23/27/2 19/28/2
f 24/29/3 21/30/3 23/31/3
f 22/32/4 17/33/4 21/34/4
f 23/35/5 17/36/5 19/37/5
f 20/38/6 22/39/6 24/40/6
f 26/41/1 27/42/1 25/43/1
f 28/44/2 31/45/2 27/46/2
f 32/47/3 29/48/3 31/49/3
f 30/50/4 25/51/4 29/52/4
f 31/53/5 25/54/5 27/55/5
f 28/44/6 30/50/6 32/47/6
f 2/1/1 4/56/1 3/2/1
f 4/4/2 8/57/2 7/5/2
f 8/6/3 6/58/3 5/7/3
f 6/8/4 2/59/4 1/3/4
f 7/5/5 5/7/5 1/3/5
f 4/9/6 2/60/6 6/10/6
f 10/12/1 12/61/1 11/13/1
f 12/15/2 16/62/2 15/16/2
f 16/17/3 14/63/3 13/18/3
f 14/19/4 10/64/4 9/14/4
f 15/16/5 13/18/5 9/14/5
f 12/20/6 10/65/6 14/21/6
f 18/23/1 20/66/1 19/24/1
f 20/26/2 24/67/2 23/27/2
f 24/29/3 22/68/3 21/30/3
f 22/32/4 18/69/4 17/33/4
f 23/35/5 21/70/5 17/36/5
f 20/38/6 18/71/6 22/39/6
f 26/41/1 28/44/1 27/42/1
f 28/44/2 32/47/2 31/45/2
f 32/47/3 30/50/3 29/48/3
f 30/50/4 26/41/4 25/51/4
f 31/53/5 29/72/5 25/54/5
f 28/44/6 26/41/6 30/50/6
